PathFileType	4	(X/Y/Z)	D:/Ayumi_testdata/Ayumi_25_09_2024/25-09-2024/conventional_dl_80kg01/conventional_dl_80kg01.trc	
DataRate	CameraRate	NumFrames	NumMarkers	Units	OrigDataRate	OrigDataStartFrame	OrigNumFrames	
200.00	200.00	4	55	mm	200.00	818	2620	
Frame#	Time	RSACR			LSACR			USACR			LBAR			RBAR			RHEE			RMT1			RMT5			RMT2			LHEE			LMT1			LMT5			LMT2			LMMAL			LLMAL			LTIB4			LTIB3			LTIB2			LTIB1			RMMAL			RLMAL			RTIB1			RTIB3			RTIB2			RTHI			RTHI4			RTHI3			RTHI2			LTHI1			LTHI4			LTHI3			LTHI2			FHD			LBHD			RBHD			C7			T10			CLAV			LSHO			RSHO			LRAD			LUL			LRFIN			RRAD			RUL			RUFIN			LMUPA			LDUPA			LUUPA			RMUPA			RUUPA			RDUPA			*52			*53			*54			
		X1	Y1	Z1	X2	Y2	Z2	X3	Y3	Z3	X4	Y4	Z4	X5	Y5	Z5	X6	Y6	Z6	X7	Y7	Z7	X8	Y8	Z8	X9	Y9	Z9	X10	Y10	Z10	X11	Y11	Z11	X12	Y12	Z12	X13	Y13	Z13	X14	Y14	Z14	X15	Y15	Z15	X16	Y16	Z16	X17	Y17	Z17	X18	Y18	Z18	X19	Y19	Z19	X20	Y20	Z20	X21	Y21	Z21	X22	Y22	Z22	X23	Y23	Z23	X24	Y24	Z24	X25	Y25	Z25	X26	Y26	Z26	X27	Y27	Z27	X28	Y28	Z28	X29	Y29	Z29	X30	Y30	Z30	X31	Y31	Z31	X32	Y32	Z32	X33	Y33	Z33	X34	Y34	Z34	X35	Y35	Z35	X36	Y36	Z36	X37	Y37	Z37	X38	Y38	Z38	X39	Y39	Z39	X40	Y40	Z40	X41	Y41	Z41	X42	Y42	Z42	X43	Y43	Z43	X44	Y44	Z44	X45	Y45	Z45	X46	Y46	Z46	X47	Y47	Z47	X48	Y48	Z48	X49	Y49	Z49	X50	Y50	Z50	X51	Y51	Z51	X52	Y52	Z52	X53	Y53	Z53	X54	Y54	Z54	X55	Y55	Z55	

656	3.275	431.48633	961.24036	734.11896	431.75131	902.82922	736.90204	414.08969	931.45099	740.88141	208.53387	-196.51012	252.06371	160.72011	2023.64990	244.40300	276.68878	1344.90540	35.53773	116.99591	1456.52966	43.50577	185.00021	1502.67603	29.53476	146.61288	1484.67639	41.21049	309.21738	493.20856	44.65002	143.71799	397.49960	49.14017	207.88574	348.62610	31.74624	169.08252	367.40839	46.26633	248.97203	502.85541	72.61589	290.36087	433.10202	71.90896	292.40942	466.57767	212.16885	271.83444	458.76779	273.92136	308.38889	494.07898	270.11792	298.04715	494.04425	310.46960	226.01054	1346.01245	67.55987	271.74249	1407.10278	71.34585	246.26587	1389.02490	318.25751	261.12888	1389.33789	254.47830	284.94516	1358.10596	307.03937	436.03760	1137.00366	621.35760	366.52628	1234.23669	522.63971	337.29340	1231.77502	564.60175	391.58511	1194.81885	569.56989	450.67496	728.56201	618.83344	346.22870	625.62848	567.02283	381.24744	631.69177	529.11200	393.01788	668.52118	582.71143	-229.35458	806.74969	881.57831	-196.87526	829.46973	987.88855	-191.20674	954.18658	984.24872	10.95113	905.86383	945.12463	365.01212	927.20380	773.19556	9.62633	914.85120	803.36371	21.34027	738.67914	866.92755	-15.41266	1058.21155	850.50073	130.02850	645.31116	347.37390	132.02846	685.60876	344.02756	148.61633	696.77582	261.36459	110.69070	1143.56287	340.60132	105.30249	1190.99329	342.28943	134.69206	1138.71643	256.94910	92.08344	676.34430	629.71014	59.74907	710.54437	645.58691	67.42252	691.95087	703.18756	47.48399	1140.93591	625.46472	29.31609	1121.55945	682.00513	44.13595	1093.85608	608.54694									 
657	3.280	431.61600	961.19861	733.63275	431.72681	902.52515	736.51147	414.20599	931.39789	740.34973	208.48886	-196.52142	252.06842	160.65906	2023.64124	244.40736	276.68430	1344.92090	35.53333	117.01536	1456.52148	43.50385	184.98799	1502.67444	29.53906	146.60388	1484.65894	41.21001	309.21985	493.20306	44.65076	143.72346	397.50183	49.14075	207.88950	348.63065	31.74410	169.08826	367.40753	46.27060	248.97006	502.84814	72.60928	290.35580	433.11578	71.90686	292.53311	466.44690	212.25412	271.78577	458.74588	273.90625	308.31659	494.09839	270.09756	297.95895	494.07303	310.45432	226.00305	1346.00403	67.55336	271.32315	1407.34570	71.28367	246.19466	1389.03149	318.25278	261.10730	1389.32666	254.46179	284.91760	1358.13171	307.03662	436.18680	1136.70642	620.84521	366.62662	1234.17944	522.35815	337.50403	1231.71655	564.34076	391.79428	1194.77466	569.20587	450.75076	728.48895	618.44073	346.24655	625.63721	566.80212	381.23450	631.61310	528.84741	393.06882	668.50806	582.41486	-229.32309	806.70660	880.86346	-196.84160	829.41199	987.20038	-191.11084	954.15271	983.50879	10.97663	905.77325	944.44012	365.10132	927.13739	772.67413	9.74335	914.74329	802.69580	21.37893	738.60181	866.13782	-15.38953	1058.12000	849.78992	129.98724	645.28619	346.62585	132.02324	685.60291	343.29468	148.75208	696.93073	260.47208	110.77541	1143.52869	339.85461	105.16661	1190.93152	341.56119	134.78831	1138.66833	256.25208	92.18661	676.30841	628.89337	59.81362	710.47272	644.78479	67.52142	691.84198	702.33893	47.37942	1140.74158	624.72308	29.35281	1121.40137	681.23615	44.35896	1093.75232	607.62262									 
658	3.285	431.76593	961.13196	733.13989	431.61493	902.48969	735.81488	414.33856	931.33862	739.89600	208.44431	-196.52682	252.06544	160.59538	2023.62891	244.41156	276.67145	1344.92786	35.54289	117.00323	1456.49963	43.49940	184.98610	1502.67200	29.53908	146.59216	1484.66504	41.21243	309.21115	493.20865	44.66138	143.73689	397.50137	49.13498	207.88937	348.63077	31.74459	169.09589	367.40469	46.27187	248.97237	502.84457	72.61755	290.34460	433.11115	71.89338	292.47830	466.45081	212.25394	271.71439	458.75348	273.89502	308.23138	494.09814	270.11990	297.89795	494.07855	310.45178	226.00090	1345.99500	67.55232	271.71567	1407.10767	71.36035	246.66650	1388.92761	317.95346	261.05801	1389.32263	254.45360	284.88177	1358.15820	307.02118	436.42120	1136.64124	620.43884	366.74539	1234.10815	522.04089	337.70963	1231.68872	564.08374	392.05322	1194.69324	568.88501	450.83618	728.41736	618.05219	346.25702	625.66229	566.55432	381.24680	631.55951	528.58636	393.08365	668.48883	582.11523	-229.29388	806.65045	880.13501	-196.79547	829.35645	986.47498	-191.07536	954.09302	982.79730	10.99449	905.69501	943.70282	365.19244	927.08331	772.15375	9.83661	914.63623	801.97699	21.39674	738.49585	865.36914	-15.36196	1058.03101	849.06866	129.95795	645.28375	345.86960	131.96495	685.60522	342.58597	148.35283	697.16815	259.77289	110.83205	1143.50598	339.13712	105.44029	1190.92493	340.85452	134.83920	1138.47473	255.62245	92.32185	676.23535	628.15265	59.89555	710.36450	644.03320	67.61176	691.75500	701.64984	47.42673	1140.56982	623.94006	29.40027	1121.20129	680.51349	44.42550	1093.54077	606.89642									 
659	3.290	431.89902	961.05231	732.63879	431.85623	902.68939	735.09369	414.45529	931.27606	739.35907	208.40707	-196.52301	252.06691	160.52551	2023.64417	244.42581	276.68472	1344.91931	35.54649	117.00668	1456.50635	43.50316	184.96988	1502.65771	29.54642	146.59753	1484.66614	41.21838	309.21634	493.19974	44.67002	143.73721	397.49686	49.13676	207.89328	348.62656	31.73130	169.09967	367.40259	46.27195	248.96956	502.84070	72.61083	290.34775	433.06216	71.90764	292.39969	466.43915	212.28471	271.64560	458.74323	273.90790	308.14056	494.09015	270.12045	297.79419	494.07220	310.45123	225.99310	1346.00073	67.55707	271.72003	1407.12488	71.35984	246.14626	1389.03394	318.20432	261.03021	1389.31775	254.44545	284.83395	1358.18823	307.02432	436.66431	1136.58545	620.04529	366.89709	1234.07397	521.71930	337.89157	1231.63977	563.83331	392.29507	1194.60864	568.54578	450.92365	728.34760	617.66028	346.27240	625.67468	566.31268	381.23553	631.51001	528.33771	393.15234	668.48877	581.80457	-229.24577	806.58264	879.42023	-196.77216	829.29248	985.76184	-191.03114	954.03241	982.05902	11.02254	905.62402	943.04913	365.29514	927.03601	771.64380	9.95467	914.54443	801.29718	21.43241	738.42444	864.59961	-14.97400	1057.64612	848.13580	129.94592	645.29370	345.12579	131.90576	685.62689	341.87003	148.42796	697.32751	258.97498	110.85375	1143.50842	338.42209	105.44603	1190.94238	340.13812	134.88319	1138.42029	254.84779	92.43473	676.17151	627.40741	60.00488	710.29749	643.29401	67.82781	691.64703	700.93726	47.57716	1140.39612	623.22552	29.31990	1121.20593	679.75232	44.47034	1093.21155	606.37817									 
